<svg width="328" height="298" viewBox="0 0 328 298" fill="none" xmlns="http://www.w3.org/2000/svg">
<path d="M176.574 7.41243C275.04 -5.72384 326.384 76.1201 323.088 177.486C315.389 303.511 167.798 322.101 73.9208 271.069C-56.7909 199.734 6.89216 55.4679 102.955 13.1824C178.457 -20.1072 308.345 6.18195 326.014 132.024C346.205 278.003 207.776 308.549 123.364 275.925C89.8079 262.855 71.0124 243.549 57.7815 219.854C11.4145 121.199 93.1535 17.0235 193.52 32.255C258.413 42.2319 304.562 79.5123 303.587 145.426C302.393 196.242 274.889 245.445 225.076 264.834C116.808 306.138 -6.60772 193.964 30.3782 106.167C39.6079 83.952 59.2609 60.1737 86.1598 44.2605C166.638 -5.12523 347.852 29.4115 312.363 173.944C308.126 191.171 300.998 207.2 291.751 221.284C224.252 323.348 73.2651 285.569 29.235 229.382C6.84172 200.898 15.0795 173.013 14.7601 175.623C6.00113 247.79 101.728 283.773 164.721 283.856C261.658 286.168 325.341 203.293 312.901 120.118C302.36 51.5603 234.373 26.9007 164.284 26.1358C79.9562 25.3543 -5.868 102.975 40.4989 188.56C91.8086 281.744 225.16 301.399 279.428 215.631C314.868 159.577 316.851 54.4203 193.049 35.1982C22.5439 9.12514 -25.8236 296.244 199.942 284.887C282.942 279.998 336.487 227.769 323.895 132.307C306.596 7.96117 178.255 -17.9955 103.661 14.7787C9.12812 56.2661 -55.2947 198.853 74.526 269.972C167.344 320.621 314.414 303.078 322.332 177.469C325.711 78.2486 276.1 -5.37465 176.607 7.72837C176.389 7.76162 176.338 7.42906 176.557 7.3958L176.574 7.41243Z" fill="#B0B0B0" fill-opacity="0.41"/>
</svg>
